# xmcd
#
# Track frame offsets:
#	150
#	19080
#	34627
#	55385
#	81565
#	101062
#	114792
#	128110
#	144482
#	162415
#
# Disc length: 2422 seconds
#
# Revision: 1
# Processed by: cddbd v1.4PL0 Copyright (c) Steve Scherf et al.
# Submitted via: audiograbber 1.82.02
#
DISCID=8209740a
DTITLE=gladys knight and the pips - the one and only...
DYEAR=1978
DGENRE=soul
TTITLE0=sorry doesn't make it right
TTITLE1=come back and finish what you started
TTITLE2=all the time
TTITLE3=it's better than good time
TTITLE4=butterfly
TTITLE5=the one and only
TTITLE6=saved by the grace of your love
TTITLE7=don't say no to me tonight
TTITLE8=be yourself
TTITLE9=what if i should ever need you
EXTD=
EXTT0=
EXTT1=
EXTT2=
EXTT3=
EXTT4=
EXTT5=
EXTT6=
EXTT7=
EXTT8=
EXTT9=
PLAYORDER=
